Coordinates
version=1
nRows=6
nColumns=36
inDegrees=yes

Units are S.I. units (second, meters, Newtons, ...)
If the header above contains a line with 'inDegrees', this indicates whether rotational values are in degrees (yes) or radians (no).

endheader
time	pelvis_tilt	pelvis_list	pelvis_rotation	pelvis_tx	pelvis_ty	pelvis_tz	hip_flexion_r	hip_adduction_r	hip_rotation_r	knee_angle_r	knee_angle_r_beta	ankle_angle_r	subtalar_angle_r	mtp_angle_r	hip_flexion_l	hip_adduction_l	hip_rotation_l	knee_angle_l	knee_angle_l_beta	ankle_angle_l	subtalar_angle_l	mtp_angle_l	lumbar_extension	lumbar_bending	lumbar_rotation	arm_flex_r	arm_add_r	arm_rot_r	elbow_flex_r	pro_sup_r	arm_flex_l	arm_add_l	arm_rot_l	elbow_flex_l	pro_sup_l
      3.45000000	     -3.52573693	     -4.16474731	     -2.00770911	      0.74346087	      0.88946677	      0.18110907	     13.13718497	      0.65792307	      4.08517467	      5.81250713	      0.10144739	      0.15585949	     -7.92664681	     -7.49999987	      1.85567301	      2.04585976	      1.64202369	      0.35860861	      0.00625890	      6.76444341	     -7.80044968	     -7.49999987	      6.37050017	      2.20434531	      4.06891304	     39.46653330	      9.76716344	     65.13227787	    126.97064236	     91.53653413	     34.17243752	      8.38347972	     70.23391338	    123.04559031	     76.92703583
      3.46666670	     -3.51210524	     -4.13106701	     -2.01596977	      0.74262521	      0.89093298	      0.17568930	     13.20561558	      0.54954546	      4.08086489	      5.84555690	      0.10202421	      0.10580692	     -7.94833371	     -7.49999987	      1.89155605	      2.15117678	      1.61459089	      0.34736487	      0.00606266	      6.74648365	     -7.80205304	     -7.49999987	      6.27102558	      2.27453439	      3.96574487	     39.45158463	      9.70329340	     65.16145437	    126.97109162	     91.55195508	     34.12944937	      8.47414141	     70.27091702	    123.00588741	     76.93458121
      3.48333330	     -3.44053726	     -4.13977202	     -2.00914468	      0.74696964	      0.89156968	      0.17803744	     13.15521730	      0.54118537	      4.09024394	      5.93176520	      0.10352883	      0.00857252	     -7.99381341	     -7.49999987	      1.75260548	      2.14116774	      1.58143517	      0.33506491	      0.00584799	      6.61636699	     -7.74225876	     -7.49999987	      6.14449564	      2.19031941	      3.80059969	     39.28058461	      9.62419590	     65.33574220	    127.02516726	     91.59572163	     33.76318072	      8.63745297	     70.39088312	    122.88490574	     76.95300399
      3.50000000	     -3.37061062	     -4.22509271	     -1.84087661	      0.74743086	      0.88661910	      0.17796960	     13.03860607	      0.59154161	      3.63630686	      6.06273070	      0.10581461	      0.53758370	     -7.39401672	     -7.49999987	      1.64953182	      2.09689928	      1.79395276	      0.33633805	      0.00587021	      6.54886751	     -7.95574972	     -7.49999987	      6.01579365	      2.24140381	      3.54902166	     39.35518848	      9.64259796	     65.61998231	    127.50184407	     89.21330158	     33.44148797	      8.79694438	     70.38911454	    123.14697500	     75.55619344
      3.51666670	     -3.27424413	     -4.19676971	     -1.92017151	      0.74409470	      0.88454016	      0.18117247	     12.86967221	      0.69862800	      4.21738577	      5.94455760	      0.10375210	      0.52151538	     -8.19155338	     -7.49999987	      1.56562144	      2.09744495	      1.59769628	      0.33409317	      0.00583103	      6.90056296	     -7.78864400	     -7.49999987	      5.91666801	      2.14932612	      3.67549860	     39.47288852	      9.79180849	     65.36620739	    127.38832500	     88.94223599	     33.72682313	      8.82710880	     70.29624520	    123.06839973	     75.50467792
      3.53333330	     -3.37896442	     -4.17092775	     -1.89296945	      0.74367242	      0.88635621	      0.18125823	     12.98699633	      0.74554518	      4.07691693	      5.99093256	      0.10456150	      0.91260102	     -7.86164473	     -7.49999987	      1.72206673	      2.07983154	      1.41053948	      0.33227671	      0.00579932	      7.01616000	     -7.52653773	     -7.49999987	      5.99547753	      2.06355513	      3.69603981	     39.41110562	      9.95461643	     65.11409035	    127.46194067	     87.89730896	     33.87948994	      8.74776780	     70.13302104	    123.19183841	     74.89514108
